<svg width="10" height="6" viewBox="0 0 10 6" fill="none" xmlns="http://www.w3.org/2000/svg">
<path d="M5 0C6.91061 0 8.64324 1.05216 9.92176 2.76115C10.0261 2.90117 10.0261 3.09677 9.92176 3.23679C8.64324 4.94784 6.91061 6 5 6C3.08939 6 1.35676 4.94784 0.0782452 3.23885C-0.0260811 3.09883 -0.0260811 2.90323 0.0782452 2.76321C1.35676 1.05216 3.08939 0 5 0ZM4.86294 5.11256C6.13123 5.19286 7.17858 4.1407 7.0988 2.86205C7.03334 1.80782 6.18441 0.953329 5.13706 0.88744C3.86877 0.807138 2.82142 1.8593 2.9012 3.13795C2.9687 4.19012 3.81763 5.04461 4.86294 5.11256ZM4.92636 4.13658C5.60959 4.17982 6.17418 3.61359 6.12918 2.92588C6.09441 2.35758 5.63619 1.89842 5.0716 1.86136C4.38836 1.81812 3.82377 2.38435 3.86877 3.07207C3.90559 3.64242 4.36381 4.10158 4.92636 4.13658Z" fill="#828282"/>
</svg>
