<svg width="7" height="8" viewBox="0 0 7 8" fill="none" xmlns="http://www.w3.org/2000/svg">
<path d="M3.37521 0.00203614C1.63207 0.0578054 0.183957 1.29785 0.0166589 2.88071C-0.0175203 3.19728 0.00226772 3.50402 0.0634304 3.79762C0.0634304 3.79762 0.0688271 3.83207 0.0868162 3.89768C0.140783 4.11748 0.221734 4.33071 0.322472 4.53083C0.673259 5.28863 1.48456 6.55656 3.30505 7.93603C3.41659 8.02132 3.58029 8.02132 3.69362 7.93603C5.51411 6.5582 6.32541 5.29027 6.678 4.52918C6.78053 4.32907 6.85969 4.11748 6.91365 3.89604C6.92984 3.83207 6.93704 3.79598 6.93704 3.79598C6.97841 3.59915 7 3.3974 7 3.19072C7 1.38971 5.3648 -0.0619344 3.37521 0.00203614ZM3.49934 4.77851C2.56031 4.77851 1.79937 4.08467 1.79937 3.22845C1.79937 2.37223 2.56031 1.67839 3.49934 1.67839C4.43836 1.67839 5.1993 2.37223 5.1993 3.22845C5.1993 4.08467 4.43836 4.77851 3.49934 4.77851Z" fill="#828282"/>
</svg>
